<?xml version="1.0" encoding="UTF-8"?>
<svg id="Layer_1" data-name="Layer 1" xmlns="http://www.w3.org/2000/svg" viewBox="0 0 927.77 210.33">
  <g>
    <circle cx="104.49" cy="104.78" r="104.49" fill="#fff"/>
    <path d="M79.75,177.32c-1.47,0-2.84-.57-3.87-1.6-2.06-2.06-2.15-5.37-.19-7.53l21.3-23.57-35.11-38.86-17.76,24.3c-1.04,1.41-2.64,2.23-4.41,2.23-1.26,0-2.45-.42-3.43-1.22l-.3-.22c-2.12-1.74-2.55-5.03-.83-7.39l17.9-24.47,9.61-13.18,33.93-46.41,3.59-4.89c1.05-1.43,2.65-2.25,4.4-2.25s3.36.82,4.4,2.25l3.59,4.9,43.35,59.31,17.95,24.53c1.72,2.35,1.29,5.64-.99,7.49-1.16.92-2.34,1.34-3.59,1.34h0c-1.76,0-3.36-.81-4.4-2.23l-17.78-24.33-35.37,39.11,21.25,23.5c1.94,2.15,1.85,5.45-.2,7.52-1.04,1.04-2.41,1.61-3.87,1.61-1.57,0-3.01-.64-4.06-1.8l-20.51-22.66-20.56,22.74c-1.05,1.17-2.48,1.81-4.04,1.81ZM68.46,96.74l35.89,39.72,36.14-39.97-35.91-49.15-36.11,49.4Z"/>
  </g>
  <g>
    <path d="M265.65,127.82V2.51h20.77v125.31h-20.77Z" fill="#fff"/>
    <path d="M319.89,127.82V2.51h20.05l56.57,77.51,9.85,13.96.36-.18c-.36-3.58-.54-7.7-.54-13.78V2.51h20.77v125.31h-20.05l-56.57-77.51c-5.91-8.06-8.06-11.1-9.85-13.96l-.54.18c.36,3.4.72,7.7.72,13.78v77.51h-20.77Z" fill="#fff"/>
    <path d="M494.25,1.43h2.51v126.39h-20.95V28.82l-23.99,8.95v-20.59l42.43-15.75Z" fill="#fff"/>
    <path d="M527.01,65.52c0-40.64,20.23-65.52,53.71-65.52s52.09,24.35,52.09,64.8-20.41,65.52-53.53,65.52-52.27-24.17-52.27-64.8ZM611.5,65.52c0-29.54-11.28-46.19-31.51-46.19s-31.87,16.29-31.87,45.47,11.28,46.19,31.87,46.19,31.51-16.29,31.51-45.47Z" fill="#fff"/>
    <path d="M653.03,113.85l10.02-15.93c10.56,7.88,24.17,13.25,38.67,13.25,15.93,0,27.75-7.34,27.75-19.87,0-10.38-7.52-16.83-28.82-19.87-29.72-4.12-44.04-15.04-44.04-34.55,0-22.2,19.87-36.88,46.01-36.88,15.93,0,29.54,3.58,42.79,13.43l-10.56,15.22c-9.13-6.98-20.95-10.03-31.69-10.03-14.68,0-25.6,6.8-25.6,17.19,0,9.67,8.41,14.14,28.46,17.54,31.69,5.19,44.4,17.36,44.4,37.59,0,24.35-19.87,39.38-48.69,39.38-19.51,0-36.88-6.62-48.69-16.47Z" fill="#fff"/>
    <path d="M774.22,127.82V2.51h20.77v125.31h-20.77Z" fill="#fff"/>
    <path d="M881.62,2.51c30.79,0,44.93,21.12,44.93,43.32s-14.14,44.04-44.93,44.04h-32.4v37.95h-20.77V2.51h53.17ZM880.37,70.89c18.08,0,25.06-11.99,25.06-24.35s-6.98-25.06-25.06-25.06h-31.15v49.41h31.15Z" fill="#fff"/>
  </g>
  <g>
    <path d="M274.58,195.64h-7.12v-44.91h7.12v44.91Z" fill="#fff"/>
    <path d="M315.06,195.64h-6.67v-16.94c0-2.78-.75-4.99-2.25-6.64-1.5-1.65-3.59-2.47-6.29-2.47s-4.68.92-6.35,2.76c-1.67,1.84-2.5,4.09-2.5,6.74v16.55h-6.61v-31.69h6.03l.38,4.62c2.99-3.38,6.54-5.07,10.65-5.07s7.24,1.35,9.78,4.04c2.54,2.69,3.82,6.39,3.82,11.1v17Z" fill="#fff"/>
    <path d="M326.48,155.61l6.67-.71v9.17h9.24v5.71h-9.3v15.08c0,3.46,1.52,5.2,4.56,5.2,1.24,0,2.59-.36,4.04-1.09l1.92,5.65c-2.14.94-4.26,1.41-6.35,1.41-3.46.08-6.13-.82-7.99-2.73-1.86-1.9-2.79-4.72-2.79-8.44v-15.08h-6.09v-5.71h6.09v-8.47Z" fill="#fff"/>
    <path d="M379.67,182.3h-25.66c.3,2.4,1.38,4.32,3.24,5.77,1.86,1.45,4.22,2.18,7.09,2.18,1.71,0,3.43-.31,5.17-.93s3.07-1.44,4.01-2.47l4.3,4.17c-1.58,1.71-3.6,3.04-6.06,3.98-2.46.94-4.97,1.41-7.54,1.41-5.18,0-9.31-1.52-12.42-4.55-3.1-3.04-4.65-7.1-4.65-12.19s1.54-8.79,4.62-11.87,7.08-4.62,12-4.62c5.3,0,9.43,1.63,12.38,4.88,2.95,3.25,4.13,8,3.53,14.24ZM354.14,176.72h19.18c-.17-2.44-1.1-4.32-2.79-5.65-1.69-1.33-3.88-1.99-6.58-1.99-2.48,0-4.61.66-6.38,1.99-1.78,1.33-2.92,3.21-3.43,5.65Z" fill="#fff"/>
    <path d="M386.41,164.01h6.16l.45,4.17c1.84-3.25,4.94-4.88,9.3-4.88,3.21,0,5.82.9,7.83,2.69l-3.01,5.77c-1.58-1.28-3.44-1.92-5.58-1.92-2.44,0-4.47.75-6.1,2.25-1.63,1.5-2.44,3.64-2.44,6.42v17.13h-6.61v-31.63Z" fill="#fff"/>
    <path d="M445.3,195.64h-6.67v-16.94c0-2.78-.75-4.99-2.25-6.64-1.5-1.65-3.59-2.47-6.29-2.47s-4.68.92-6.35,2.76c-1.67,1.84-2.5,4.09-2.5,6.74v16.55h-6.61v-31.69h6.03l.38,4.62c2.99-3.38,6.54-5.07,10.65-5.07s7.24,1.35,9.78,4.04c2.54,2.69,3.82,6.39,3.82,11.1v17Z" fill="#fff"/>
    <path d="M479.76,195.64h-6.67v-25.41h-6.03v-5.84h6.03v-2.31c0-3.81,1.06-6.76,3.18-8.85,2.12-2.09,4.87-3.14,8.25-3.14,2.69,0,5.28.83,7.76,2.5l-2.57,4.94c-1.71-1.11-3.32-1.67-4.81-1.67-1.58,0-2.83.52-3.75,1.57-.92,1.05-1.38,2.6-1.38,4.65v2.31h9.56v5.84h-9.56v25.41Z" fill="#fff"/>
    <path d="M496.05,158.33c-1.37-.71-2.05-1.91-2.05-3.62s.68-2.91,2.05-3.59c1.37-.68,2.74-.68,4.11,0,1.37.68,2.05,1.88,2.05,3.59s-.68,2.92-2.05,3.62c-1.37.71-2.74.71-4.11,0ZM501.38,163.88h-6.61v31.76h6.61v-31.76Z" fill="#fff"/>
    <path d="M510.36,164.01h6.16l.45,4.17c1.84-3.25,4.94-4.88,9.3-4.88,3.21,0,5.82.9,7.83,2.69l-3.01,5.77c-1.58-1.28-3.44-1.92-5.58-1.92-2.44,0-4.47.75-6.1,2.25-1.63,1.5-2.44,3.64-2.44,6.42v17.13h-6.61v-31.63Z" fill="#fff"/>
    <path d="M562.52,167.41l-3.72,4.36c-2.14-1.97-4.92-2.95-8.34-2.95-2.05-.04-3.69.27-4.91.93s-1.83,1.61-1.83,2.85c.04,2.27,2.33,3.62,6.87,4.04,1.8.17,3.35.4,4.65.67,1.3.28,2.69.75,4.17,1.41,1.48.66,2.61,1.66,3.4,2.98.79,1.33,1.19,2.95,1.19,4.88-.04,3-1.28,5.41-3.72,7.25-2.44,1.84-5.69,2.76-9.75,2.76-6.16,0-10.97-1.95-14.44-5.84l3.46-4.68c2.74,3.04,6.44,4.6,11.1,4.68,1.8,0,3.36-.34,4.68-1.03,1.33-.68,2.01-1.71,2.05-3.08.04-1.37-.55-2.37-1.76-3.02s-3.07-1.09-5.55-1.35c-8.56-.81-12.85-3.98-12.9-9.5,0-3.21,1.34-5.61,4.01-7.22,2.67-1.6,5.72-2.41,9.14-2.41,4.96,0,9.02,1.41,12.19,4.24Z" fill="#fff"/>
    <path d="M574.13,155.61l6.67-.71v9.17h9.24v5.71h-9.3v15.08c0,3.46,1.52,5.2,4.56,5.2,1.24,0,2.59-.36,4.04-1.09l1.92,5.65c-2.14.94-4.26,1.41-6.35,1.41-3.46.08-6.13-.82-7.99-2.73-1.86-1.9-2.79-4.72-2.79-8.44v-15.08h-6.09v-5.71h6.09v-8.47Z" fill="#fff"/>
    <path d="M598,195.74c-1.37-.71-2.05-1.91-2.05-3.62s.68-2.91,2.05-3.59c1.37-.68,2.73-.68,4.07,0,1.35.69,2.02,1.88,2.02,3.59s-.67,2.92-2.02,3.62c-1.35.71-2.71.71-4.07,0Z" fill="#fff"/>
    <path d="M626.42,150.73h21.62v26.3c0,5.77-1.74,10.46-5.23,14.05-3.49,3.59-8.16,5.39-14.02,5.39s-10.31-1.69-13.86-5.07c-3.55-3.38-5.33-8.04-5.33-13.99h7.06c0,3.94,1.05,6.97,3.14,9.11,2.09,2.14,5.09,3.21,8.98,3.21s6.77-1.17,8.89-3.5c2.12-2.33,3.18-5.4,3.18-9.21v-19.63h-14.44v-6.67Z" fill="#fff"/>
    <path d="M659.24,168.05c3.02-3.12,6.94-4.68,11.77-4.68s8.78,1.57,11.84,4.71c3.06,3.14,4.59,7.07,4.59,11.77s-1.51,8.67-4.52,11.77c-3.02,3.1-6.98,4.65-11.9,4.65s-8.81-1.55-11.81-4.65c-2.99-3.1-4.49-7.03-4.49-11.77s1.51-8.68,4.52-11.8ZM671.01,169.47c-2.91,0-5.25,1.01-7.03,3.02-1.78,2.01-2.66,4.47-2.66,7.38s.88,5.35,2.63,7.31c1.75,1.97,4.11,2.95,7.06,2.95s5.31-.98,7.09-2.95c1.77-1.97,2.66-4.41,2.66-7.31s-.92-5.31-2.76-7.35c-1.84-2.03-4.17-3.05-6.99-3.05Z" fill="#fff"/>
    <path d="M694.43,150.8h6.61v18.16c.98-1.75,2.56-3.13,4.72-4.14,2.16-1,4.29-1.51,6.38-1.51,4.7,0,8.55,1.44,11.55,4.33,2.99,2.89,4.49,6.94,4.49,12.16s-1.52,9.11-4.55,12.06c-3.04,2.95-6.91,4.43-11.61,4.43-5,0-8.66-1.88-10.97-5.65l-.38,5h-6.22v-44.85ZM711.56,169.53c-2.82,0-5.22.96-7.19,2.89-1.97,1.92-2.95,4.38-2.95,7.38s.97,5.52,2.92,7.44c1.95,1.92,4.35,2.89,7.22,2.89s5.2-.95,7.12-2.86c1.92-1.9,2.89-4.39,2.89-7.47s-.95-5.67-2.85-7.51c-1.9-1.84-4.29-2.76-7.15-2.76Z" fill="#fff"/>
    <path d="M751.21,164.01h6.16l.45,4.17c1.84-3.25,4.94-4.88,9.3-4.88,3.21,0,5.82.9,7.83,2.69l-3.01,5.77c-1.58-1.28-3.44-1.92-5.58-1.92-2.44,0-4.47.75-6.1,2.25-1.63,1.5-2.44,3.64-2.44,6.42v17.13h-6.61v-31.63Z" fill="#fff"/>
    <path d="M809.14,182.3h-25.66c.3,2.4,1.38,4.32,3.24,5.77,1.86,1.45,4.22,2.18,7.09,2.18,1.71,0,3.43-.31,5.17-.93s3.07-1.44,4.01-2.47l4.3,4.17c-1.58,1.71-3.6,3.04-6.06,3.98-2.46.94-4.97,1.41-7.54,1.41-5.18,0-9.31-1.52-12.42-4.55-3.1-3.04-4.65-7.1-4.65-12.19s1.54-8.79,4.62-11.87,7.08-4.62,12-4.62c5.3,0,9.43,1.63,12.38,4.88,2.95,3.25,4.13,8,3.53,14.24ZM783.61,176.72h19.18c-.17-2.44-1.1-4.32-2.79-5.65-1.69-1.33-3.88-1.99-6.58-1.99-2.48,0-4.61.66-6.38,1.99-1.78,1.33-2.92,3.21-3.43,5.65Z" fill="#fff"/>
    <path d="M841.09,169.02l.19-5h6.42v31.63h-6.29l-.32-5.13c-.98,1.92-2.51,3.4-4.59,4.43-2.08,1.03-4.18,1.54-6.32,1.54-4.75.04-8.64-1.41-11.68-4.36-3.04-2.95-4.56-7.06-4.56-12.32s1.55-9.16,4.65-12.09c3.1-2.93,7-4.39,11.71-4.39,2.27,0,4.38.51,6.35,1.54,1.97,1.03,3.44,2.42,4.43,4.17ZM830.83,169.34c-2.91,0-5.35.95-7.31,2.85-1.97,1.9-2.95,4.44-2.95,7.6s.98,5.71,2.95,7.64c1.97,1.92,4.41,2.89,7.31,2.89,1.88,0,3.56-.38,5.04-1.16,1.48-.77,2.59-1.77,3.34-3.01s1.3-2.6,1.67-4.07c.36-1.48.36-2.96,0-4.46-.36-1.5-.92-2.87-1.67-4.11-.75-1.24-1.86-2.25-3.34-3.02-1.48-.77-3.15-1.15-5.04-1.15Z" fill="#fff"/>
    <path d="M881.9,150.8h6.61v44.85h-6.22l-.39-5c-2.31,3.76-5.97,5.65-10.97,5.65-4.71,0-8.58-1.48-11.61-4.43-3.04-2.95-4.56-6.97-4.56-12.06s1.49-9.27,4.46-12.16c2.97-2.89,6.83-4.33,11.58-4.33,2.09,0,4.22.5,6.38,1.51,2.16,1,3.73,2.38,4.71,4.14v-18.16ZM871.38,169.53c-2.87,0-5.25.92-7.15,2.76s-2.85,4.34-2.85,7.51.95,5.62,2.85,7.51c1.9,1.88,4.29,2.82,7.15,2.82s5.21-.96,7.15-2.89c1.95-1.92,2.92-4.4,2.92-7.44s-.97-5.45-2.92-7.38-4.33-2.89-7.15-2.89Z" fill="#fff"/>
    <path d="M920.39,164.01h7.38l-19.95,46.32h-7.31l6.54-15.14-12.64-31.18h7.7l5.45,14.95,3.14,8.98,3.4-8.85,6.29-15.08Z" fill="#fff"/>
  </g>
</svg>